<svg xmlns="http://www.w3.org/2000/svg" viewBox="0 0 119.79 119.79"><defs><style>.cls-1{fill:#5cc2a1;}</style></defs><title>icon-1</title><g id="Layer_2" data-name="Layer 2"><path class="cls-1" d="M59.89,11.9a48,48,0,1,1-48,48,48,48,0,0,1,48-48m0-11.9a59.9,59.9,0,1,0,59.9,59.89A59.89,59.89,0,0,0,59.89,0Z"/><path class="cls-1" d="M87.46,80.56c-8.25,0-12.63-3.5-16.15-6.32-3.15-2.52-5.43-4.35-10.52-4.35s-7.37,1.83-10.52,4.35c-3.52,2.82-7.9,6.32-16.14,6.32S21.5,77.06,18,74.24c-3.15-2.52-5.43-4.35-10.52-4.35v-9c8.25,0,12.63,3.51,16.15,6.32,3.15,2.53,5.43,4.35,10.52,4.35s7.36-1.82,10.52-4.35c3.52-2.81,7.9-6.32,16.14-6.32s12.63,3.51,16.15,6.32c3.15,2.53,5.43,4.35,10.52,4.35S94.83,69.74,98,67.21c3.52-2.81,7.9-6.32,16.15-6.32v9c-5.09,0-7.37,1.83-10.52,4.35C100.09,77.06,95.71,80.56,87.46,80.56Z"/><path class="cls-1" d="M97.11,88.71c-3.15,2.53-5.43,4.35-10.52,4.35s-7.37-1.82-10.52-4.35c-3.52-2.81-7.9-6.32-16.15-6.32S47.3,85.9,43.78,88.71c-3.16,2.53-5.44,4.35-10.52,4.35s-7.37-1.82-10.52-4.35a28,28,0,0,0-8.34-5.06,25.53,25.53,0,0,1,2.16,10.24c0,.46,0,.92,0,1.38l.59.47c3.52,2.82,7.9,6.32,16.15,6.32s12.62-3.5,16.14-6.32c3.15-2.52,5.43-4.35,10.52-4.35s7.37,1.83,10.52,4.35c3.52,2.82,7.9,6.32,16.15,6.32s12.56-3.45,16.06-6.25a25.74,25.74,0,0,1,4.64-12.7C102.68,84.27,99.67,86.67,97.11,88.71Z"/><path class="cls-1" d="M37.19,37.07c2.88,4,5,7.88,5,9.28a5,5,0,0,1-10.1,0c0-1.39,2.17-5.26,5.06-9.28m0-7.14s-9.42,11.21-9.42,16.42a9.43,9.43,0,0,0,18.85,0c0-5.21-9.43-16.42-9.43-16.42Z"/><polygon class="cls-1" points="37.18 36.56 37.18 54.35 42.93 49.42 42.93 44.22 37.18 36.56"/><path class="cls-1" d="M61.84,26.75c2.89,4,5,7.88,5,9.28a5.05,5.05,0,0,1-10.1,0c0-1.4,2.17-5.26,5.05-9.28m0-7.14S52.41,30.82,52.41,36a9.43,9.43,0,0,0,18.86,0c0-5.21-9.43-16.42-9.43-16.42Z"/><polygon class="cls-1" points="61.84 26.24 61.84 44.03 67.59 39.1 67.59 33.9 61.84 26.24"/><path class="cls-1" d="M84.51,37.07c2.88,4,5,7.88,5,9.28a5,5,0,1,1-10.1,0c0-1.39,2.17-5.26,5.05-9.28m0-7.14s-9.43,11.21-9.43,16.42a9.43,9.43,0,0,0,18.86,0c0-5.21-9.43-16.42-9.43-16.42Z"/><polygon class="cls-1" points="84.51 36.56 84.51 54.35 90.26 49.42 90.26 44.22 84.51 36.56"/></g></svg>