<svg xmlns="http://www.w3.org/2000/svg" viewBox="0 0 119.79 119.79"><defs><style>.cls-1{fill:#5cc2a1;}</style></defs><title>icon-3</title><g id="Layer_2" data-name="Layer 2"><path class="cls-1" d="M59.89,11.9a48,48,0,1,1-48,48,48,48,0,0,1,48-48m0-11.9a59.9,59.9,0,1,0,59.9,59.89A59.89,59.89,0,0,0,59.89,0Z"/><path class="cls-1" d="M86.56,59.06c-8.25,0-12.63-3.5-16.15-6.32-3.15-2.52-5.43-4.35-10.52-4.35s-7.37,1.83-10.52,4.35c-3.52,2.82-7.9,6.32-16.15,6.32s-12.62-3.5-16.14-6.32c-3.15-2.52-5.43-4.35-10.52-4.35v-9c8.24,0,12.62,3.51,16.14,6.32,3.16,2.53,5.44,4.35,10.52,4.35s7.37-1.82,10.52-4.35c3.52-2.81,7.9-6.32,16.15-6.32S72.51,42.9,76,45.71c3.16,2.53,5.44,4.35,10.53,4.35s7.37-1.82,10.52-4.35c3.52-2.81,7.9-6.32,16.15-6.32v9c-5.09,0-7.37,1.83-10.53,4.35C99.18,55.56,94.8,59.06,86.56,59.06Z"/><path class="cls-1" d="M87.46,80.56c-8.25,0-12.63-3.5-16.15-6.32-3.15-2.52-5.43-4.35-10.52-4.35s-7.37,1.83-10.52,4.35c-3.52,2.82-7.9,6.32-16.14,6.32S21.5,77.06,18,74.24c-3.15-2.52-5.43-4.35-10.52-4.35v-9c8.25,0,12.63,3.51,16.15,6.32,3.15,2.53,5.43,4.35,10.52,4.35s7.36-1.82,10.52-4.35c3.52-2.81,7.9-6.32,16.14-6.32s12.63,3.51,16.15,6.32c3.15,2.53,5.43,4.35,10.52,4.35S94.83,69.74,98,67.21c3.52-2.81,7.9-6.32,16.15-6.32v9c-5.09,0-7.37,1.83-10.52,4.35C100.09,77.06,95.71,80.56,87.46,80.56Z"/><path class="cls-1" d="M97.11,88.71c-3.15,2.53-5.43,4.35-10.52,4.35s-7.37-1.82-10.52-4.35c-3.52-2.81-7.9-6.32-16.15-6.32S47.3,85.9,43.78,88.71c-3.16,2.53-5.44,4.35-10.52,4.35s-7.37-1.82-10.52-4.35a28,28,0,0,0-8.34-5.06,25.53,25.53,0,0,1,2.16,10.24c0,.46,0,.92,0,1.38l.59.47c3.52,2.82,7.9,6.32,16.15,6.32s12.62-3.5,16.14-6.32c3.15-2.52,5.43-4.35,10.52-4.35s7.37,1.83,10.52,4.35c3.52,2.82,7.9,6.32,16.15,6.32s12.56-3.45,16.06-6.25a25.74,25.74,0,0,1,4.64-12.7C102.68,84.27,99.67,86.67,97.11,88.71Z"/></g></svg>