<svg xmlns="http://www.w3.org/2000/svg" viewBox="0 0 119.79 119.79"><defs><style>.cls-1{fill:#5cc2a1;}</style></defs><title>icon-2</title><g id="Layer_2" data-name="Layer 2"><path class="cls-1" d="M59.89,11.9a48,48,0,1,1-48,48,48,48,0,0,1,48-48m0-11.9a59.9,59.9,0,1,0,59.9,59.89A59.89,59.89,0,0,0,59.89,0Z"/><path class="cls-1" d="M59.7,29.19c3.88,5.42,6.79,10.63,6.8,12.51a6.81,6.81,0,0,1-13.62,0c0-1.87,2.93-7.08,6.82-12.51m0-9.63S47,34.68,47,41.7a12.72,12.72,0,1,0,25.43,0c0-7-12.72-22.14-12.72-22.14Z"/><polygon class="cls-1" points="59.69 28.5 59.69 52.49 67.44 45.85 67.44 38.84 59.69 28.5"/><path class="cls-1" d="M41.37,65.84c3.89,5.42,6.8,10.63,6.81,12.51a6.81,6.81,0,0,1-13.62,0c0-1.88,2.93-7.09,6.81-12.51m0-9.64S28.65,71.32,28.65,78.35a12.72,12.72,0,0,0,25.44,0c0-7-12.72-22.15-12.72-22.15Z"/><polygon class="cls-1" points="41.37 65.14 41.37 89.14 49.13 82.49 49.13 75.48 41.37 65.14"/><path class="cls-1" d="M80.16,64.06C84.05,69.48,87,74.69,87,76.56a6.81,6.81,0,0,1-13.62,0c0-1.87,2.93-7.08,6.81-12.5m0-9.64S67.45,69.54,67.45,76.56a12.72,12.72,0,1,0,25.43,0c0-7-12.72-22.14-12.72-22.14Z"/><polygon class="cls-1" points="80.16 63.36 80.16 87.36 87.92 80.71 87.92 73.7 80.16 63.36"/></g></svg>